<svg width="40" height="32" viewBox="0 0 40 32" fill="none" xmlns="http://www.w3.org/2000/svg">
  <!-- Background rect -->
  <rect opacity="0.15" x="2" y="1" width="36" height="30" rx="3" fill="url(#paint0_linear)"/>
  <!-- Outer border -->
  <rect x="2" y="1" width="36" height="30" rx="3" stroke="url(#paint0_linear)" stroke-width="1.5"/>
  <!-- Left curly brace { -->
  <path d="M16 6 C12.5 6 12.5 9.5 12.5 11.5 C12.5 13.5 10 14.5 10 16 C10 17.5 12.5 18.5 12.5 20.5 C12.5 22.5 12.5 26 16 26" stroke="url(#paint0_linear)" stroke-width="2" stroke-linecap="round" stroke-linejoin="round" fill="none"/>
  <!-- Right curly brace } -->
  <path d="M24 6 C27.5 6 27.5 9.5 27.5 11.5 C27.5 13.5 30 14.5 30 16 C30 17.5 27.5 18.5 27.5 20.5 C27.5 22.5 27.5 26 24 26" stroke="url(#paint0_linear)" stroke-width="2" stroke-linecap="round" stroke-linejoin="round" fill="none"/>
  <!-- Slash separator -->
  <line x1="22" y1="10" x2="18" y2="22" stroke="url(#paint0_linear)" stroke-width="1.5" stroke-linecap="round" opacity="0.7"/>
  <defs>
    <linearGradient id="paint0_linear" x1="2" y1="1" x2="38" y2="31" gradientUnits="userSpaceOnUse">
      <stop offset="0.259336" stop-color="#FFDB6E"/>
      <stop offset="1" stop-color="#FFBC5E"/>
    </linearGradient>
  </defs>
</svg>
